<?xml version="1.0" encoding="UTF-8" ?>
<!DOCTYPE svg PUBLIC "-//W3C//DTD SVG 1.1//EN" "http://www.w3.org/Graphics/SVG/1.1/DTD/svg11.dtd">
<svg width="512pt" height="512pt" viewBox="0 0 512 512" version="1.1" xmlns="http://www.w3.org/2000/svg">
<g id="#000000ff">
<path fill="#000000" opacity="1.00" d=" M 169.15 44.36 C 179.50 41.08 191.51 44.12 199.09 51.88 C 206.04 59.00 211.04 67.77 215.29 76.71 C 222.87 92.29 227.33 109.09 232.47 125.57 C 238.91 143.96 240.57 163.62 240.43 182.99 C 240.23 200.09 238.75 217.18 236.23 234.09 C 242.38 227.28 248.61 220.55 254.91 213.88 C 259.58 209.03 266.57 207.54 273.07 207.97 C 279.14 197.77 284.85 187.32 289.32 176.32 C 291.47 170.98 293.23 165.43 293.57 159.66 C 290.86 159.07 287.79 158.46 286.16 155.96 C 282.87 151.79 285.05 144.91 290.13 143.39 C 297.13 141.73 305.29 145.34 308.13 152.11 C 310.99 158.65 309.60 166.08 307.84 172.72 C 303.53 187.42 296.06 200.92 288.50 214.15 C 291.94 216.82 295.02 219.90 297.69 223.35 C 310.46 216.06 323.48 208.88 337.57 204.47 C 344.58 202.45 352.41 200.71 359.44 203.59 C 366.35 206.33 370.12 214.57 368.47 221.67 C 367.00 226.69 360.31 228.96 356.10 225.85 C 353.44 224.26 352.76 221.09 352.18 218.29 C 344.11 218.76 336.57 221.97 329.29 225.23 C 320.58 229.27 312.13 233.86 303.89 238.80 C 304.44 245.79 302.42 253.24 296.99 257.98 C 290.57 263.91 284.19 269.90 277.70 275.76 C 297.28 272.74 317.13 271.21 336.95 271.57 C 353.68 271.94 370.56 273.88 386.42 279.50 C 408.01 286.10 430.23 292.13 449.43 304.46 C 456.15 308.89 462.91 314.14 466.22 321.73 C 470.75 331.42 469.52 343.53 462.89 351.98 C 455.65 361.40 444.17 366.22 433.00 369.18 C 421.73 371.93 410.38 374.31 399.17 377.28 C 397.75 377.60 396.48 378.34 395.36 379.23 C 388.10 385.00 380.87 390.81 373.56 396.51 C 365.20 402.96 354.60 407.19 343.92 406.08 C 338.68 405.64 333.75 403.60 329.26 400.98 C 325.38 416.83 314.98 430.33 302.77 440.81 C 285.87 453.88 266.40 464.54 245.08 467.92 C 227.62 470.77 209.21 467.85 193.72 459.23 C 184.68 454.12 175.48 447.89 170.77 438.29 C 166.87 430.86 166.20 422.18 167.51 413.99 C 170.07 396.30 176.14 379.30 183.40 363.03 C 166.57 378.66 149.66 394.20 132.83 409.84 C 129.97 412.65 126.15 414.64 122.04 414.43 C 110.26 414.05 99.89 404.39 97.72 392.96 C 96.79 388.46 97.80 383.45 101.07 380.09 C 116.93 362.93 132.80 345.78 148.67 328.64 C 142.46 331.77 135.91 334.13 129.38 336.48 C 117.60 340.58 105.47 344.03 93.00 345.03 C 81.64 346.00 70.00 341.23 62.60 332.56 C 51.74 319.86 44.66 303.80 43.33 287.09 C 41.45 265.98 48.41 245.06 59.06 227.07 C 64.60 217.91 70.54 208.78 78.51 201.51 C 87.67 192.84 98.64 185.71 111.02 182.74 C 107.24 176.57 105.16 169.30 105.82 162.03 C 106.54 153.19 110.42 144.82 115.89 137.92 C 121.34 131.03 126.77 124.13 132.29 117.29 C 135.55 113.58 135.50 108.33 136.96 103.84 C 140.99 89.24 142.38 73.56 150.27 60.30 C 154.50 53.08 161.00 46.83 169.15 44.36 M 173.32 60.26 C 165.74 63.45 162.32 71.73 159.86 79.00 C 156.71 89.88 154.78 101.07 151.80 111.99 C 150.54 116.22 150.27 120.96 147.41 124.53 C 140.95 132.70 134.40 140.80 127.99 149.01 C 123.67 154.89 120.52 162.69 122.94 169.96 C 125.45 177.18 132.53 181.16 136.95 187.04 C 139.62 190.89 137.91 196.77 133.67 198.70 C 131.13 200.15 128.20 199.25 125.54 198.73 C 119.43 197.31 113.02 198.69 107.38 201.20 C 95.41 206.81 85.43 216.26 78.28 227.30 C 68.45 241.80 60.69 258.36 59.54 276.06 C 58.34 292.87 64.36 309.95 75.56 322.48 C 79.45 326.71 85.27 329.08 91.02 328.71 C 99.68 328.19 108.16 326.06 116.42 323.53 C 138.21 316.40 159.35 306.93 178.76 294.72 C 183.12 291.83 186.46 287.76 189.99 283.97 C 197.21 276.18 204.40 268.37 211.64 260.60 C 213.66 258.38 216.25 256.25 216.51 253.03 C 220.56 231.25 223.49 209.21 224.01 187.05 C 224.31 173.69 223.73 160.26 221.32 147.10 C 219.68 137.89 216.21 129.18 213.66 120.22 C 209.06 104.45 203.84 88.67 195.53 74.41 C 193.21 70.52 190.65 66.72 187.49 63.46 C 183.93 59.76 178.12 58.37 173.32 60.26 M 267.65 224.74 C 263.03 228.41 259.54 233.33 255.35 237.48 C 208.18 288.52 160.95 339.49 113.75 390.51 C 115.12 394.03 117.84 396.73 121.36 398.10 C 176.04 347.55 230.66 296.94 285.35 246.40 C 288.51 244.06 287.62 239.73 286.29 236.63 C 283.35 229.56 275.60 223.21 267.65 224.74 M 308.56 288.78 C 291.72 290.01 274.99 292.46 258.40 295.57 C 256.41 295.81 254.74 296.93 253.35 298.30 C 243.36 307.68 233.23 316.89 223.23 326.25 C 217.93 331.22 214.39 337.66 210.88 343.93 C 203.90 356.68 197.81 369.91 192.62 383.49 C 188.29 395.27 184.42 407.41 183.34 419.98 C 182.70 426.05 185.03 432.33 189.54 436.45 C 202.58 448.09 220.52 454.10 237.94 452.29 C 258.04 450.35 276.40 440.37 292.21 428.29 C 301.07 420.59 309.05 411.15 312.60 399.79 C 314.42 394.31 313.97 388.47 312.62 382.95 C 311.33 376.75 318.96 371.52 324.35 374.69 C 330.62 378.95 334.52 386.47 341.98 389.05 C 349.50 391.57 357.50 388.14 363.49 383.60 C 370.97 377.69 378.46 371.78 385.89 365.80 C 387.61 364.46 389.35 363.03 391.48 362.38 C 403.52 359.11 415.71 356.42 427.85 353.57 C 435.08 351.73 442.53 349.25 448.07 344.04 C 451.82 340.59 453.62 335.03 451.94 330.11 C 450.39 324.85 445.47 321.76 441.25 318.76 C 423.21 307.00 402.14 301.54 381.80 295.23 C 358.38 286.92 333.04 287.18 308.56 288.78 Z" />
</g>
</svg>
